<svg width="447" height="311" viewBox="0 0 447 311" fill="none" xmlns="http://www.w3.org/2000/svg">
<path d="M101.75 217.333C88.4261 217.333 75.2329 215.334 62.9234 211.45C50.6139 207.566 39.4292 201.872 30.008 194.695C10.9808 180.2 0.291504 160.541 0.291504 140.042C0.291504 119.543 10.9808 99.8832 30.008 85.3882C49.0351 70.8932 74.8414 62.75 101.75 62.75C122.042 26.4229 168.712 0.916656 223.5 0.916656C293.1 0.916656 350.12 42.0358 355.396 94.1304L365.541 93.6667C387.068 93.6667 407.713 100.181 422.935 111.777C438.157 123.373 446.708 139.101 446.708 155.5C446.708 171.899 438.157 187.627 422.935 199.223C407.713 210.819 387.068 217.333 365.541 217.333H345.25C339.868 217.333 334.707 215.705 330.901 212.806C327.096 209.907 324.958 205.975 324.958 201.875C324.958 197.775 327.096 193.843 330.901 190.944C334.707 188.045 339.868 186.417 345.25 186.417H365.541C376.305 186.417 386.627 183.159 394.238 177.361C401.849 171.563 406.125 163.7 406.125 155.5C406.125 147.3 401.849 139.437 394.238 133.639C386.627 127.841 376.305 124.583 365.541 124.583H324.958V109.125C324.958 88.626 314.269 68.9665 295.242 54.4715C276.215 39.9765 250.408 31.8333 223.5 31.8333C172.771 31.8333 131.173 59.9675 123.259 96.6037C116.563 94.7487 109.258 93.6667 101.75 93.6667C85.6048 93.6667 70.121 98.5526 58.7047 107.25C47.2884 115.947 40.8748 127.742 40.8748 140.042C40.8748 152.341 47.2884 164.137 58.7047 172.834C70.121 181.531 85.6048 186.417 101.75 186.417H122.042C127.423 186.417 132.584 188.045 136.39 190.944C140.195 193.843 142.333 197.775 142.333 201.875C142.333 205.975 140.195 209.907 136.39 212.806C132.584 215.705 127.423 217.333 122.042 217.333H101.75ZM223.5 140.042H284.375L243.791 201.875H284.375L208.281 310.083L223.5 232.792H172.771L223.5 140.042Z" fill="#0847EA" fill-opacity="0.8"/>
</svg>
